<?xml version="1.0" encoding="utf-8"?>
<!-- Generator: Adobe Illustrator 16.0.0, SVG Export Plug-In . SVG Version: 6.00 Build 0)  -->
<!DOCTYPE svg PUBLIC "-//W3C//DTD SVG 1.1//EN" "http://www.w3.org/Graphics/SVG/1.1/DTD/svg11.dtd">
<svg version="1.1" id="Layer_2" xmlns="http://www.w3.org/2000/svg" xmlns:xlink="http://www.w3.org/1999/xlink" x="0px" y="0px"
	 width="300px" height="300px" viewBox="0 0 300 300" enable-background="new 0 0 300 300" xml:space="preserve" transform="scale(-1,1)">
<g>
	<path d="M144.6,270.609c0.005,0.088,0.081,0.156,0.169,0.152c0.086-0.006,0.152-0.084,0.152-0.17c0-0.004,0.001,0.002,0,0l0,0l0,0
		l0,0L144.6,270.609c0,0.016,0.314-0.029,0.321-0.018c-0.011,1.986-0.149-1.064-0.152,0.17c-0.028-0.018,0.04-0.006,0,0
		l-27.551,3.621c-0.08,0.012-0.139,0.078-0.142,0.158l-0.24,13.68c-0.021,0.08,0.055,0.146,0.133,0.16l27.843,4.99
		c0.071,0.014,0.144-0.021,0.172-0.088l3.466-7.119l1.302,8.201c0.008,0.045,0.034,0.086,0.073,0.109l0.645,0.402
		c0.059,0.037,0.126,0.021,0.178-0.021c0.053,0.041,0.119,0.06,0.179,0.021l0.645-0.402c0.039-0.023,0.064-0.064,0.073-0.109
		l1.301-8.207l3.465,7.125c0.031,0.064,0.103,0.102,0.173,0.088l7.915-1.391v3.674c0,0.021,0.004,0.043,0.015,0.063l0.805,1.826
		c0.029,0.068,0.104,0.107,0.181,0.094c0.074-0.018,0.129-0.082,0.129-0.16v-5.725l18.802-3.371c0.076-0.014,0.134-0.08,0.134-0.158
		v-0.002l-0.241-13.68c-0.001-0.08-0.063-0.148-0.142-0.156l-17.7-2.201c-0.009,0-0.015,0.006-0.021,0.006
		c-0.193-0.348-0.488-0.569-0.831-0.58V250.42c0-0.021-0.006-0.045-0.015-0.064l-0.806-1.824c-0.03-0.07-0.105-0.107-0.182-0.096
		c-0.073,0.018-0.127,0.082-0.127,0.158v23.438H163.8v-0.034c0-0.089-0.072-0.158-0.16-0.158h-2.501v-0.416
		c0-0.088-0.072-0.16-0.161-0.16h-1.309c-0.09,0-0.161,0.072-0.161,0.16v0.416h-3.105c0.025-0.028,0.045-0.062,0.048-0.101
		l4.424-80.633l1.369-25.763l0.38,0.465l0.061,0.048c0.021,0.008,0.479,0.198,0.771-0.088c0.214-0.216,1.3-1.404,1.346-1.455
		l0.032-0.054c0.02-0.053,0.081-0.231,0.081-0.418c0-0.125-0.027-0.25-0.118-0.34c-0.019-0.021-0.021-0.072-0.021-0.142
		c0.336,0.354,0.606,0.627,0.631,0.649l0.052,0.035c0.02,0.008,0.479,0.199,0.768-0.088c0.215-0.216,1.3-1.404,1.346-1.453
		l0.032-0.054c0.021-0.053,0.082-0.233,0.082-0.418c0-0.127-0.028-0.252-0.119-0.342c-0.017-0.021-0.021-0.082-0.021-0.16
		c0.621,0.729,1.466,1.576,1.511,1.621l0.051,0.033c0.021,0.008,0.479,0.2,0.769-0.089c0.216-0.213,1.301-1.401,1.347-1.452
		l0.032-0.054c0.019-0.051,0.082-0.231,0.082-0.418c0-0.125-0.029-0.252-0.119-0.342c-0.03-0.035-0.034-0.185-0.002-0.359
		c0.625,0.736,1.499,1.613,1.545,1.66l0.05,0.035c0.021,0.008,0.479,0.198,0.768-0.088c0.216-0.218,1.303-1.404,1.349-1.455
		l0.031-0.052c0.02-0.055,0.081-0.233,0.081-0.418c0-0.127-0.027-0.254-0.118-0.344c-0.03-0.033-0.032-0.188,0.002-0.371
		c0.392,0.084,0.903-0.144,0.972-0.175l0.061-0.024l1.591-4.062l-0.184-16.11l26.438,27.169l34.655,35.301l0,0
		c0.001,0,0.001,0,0.001,0l0,0c0.016,0.014,0.026,0.023,0.046,0.029l9.147,4.357c0.044,0.012,1.11,0.283,1.813-0.359
		c0.64-0.586,6.311-6.357,6.551-6.604c0.016-0.018,0.028-0.035,0.036-0.057c0.018-0.051,0.031-0.117,0.031-0.189
		c0-0.221-0.115-0.516-0.546-0.711c-0.563-0.258-8.57-4.186-9.09-4.439l-46.333-48.208l-14.914-15.128
		c-0.015-0.014-0.029-0.026-0.051-0.034l-7.041-3.072v-2.74c0-0.514-0.008-0.997-0.021-1.461c0.015,0.003,0.024,0.014,0.043,0.012
		l20.601-2.897c0.079-0.011,0.14-0.079,0.14-0.16c0-0.001,0-0.002,0-0.003l-0.241-10.948l-0.154-2.941
		c0.093-0.182,0.405-0.825,0.405-1.345c0-0.053-0.003-0.104-0.012-0.155c-0.085-0.587-0.407-1.16-0.423-1.184
		c-0.023-0.045-0.068-0.066-0.117-0.073l-0.104-1.947c-0.004-0.083-0.07-0.15-0.153-0.153l-14.84-0.66l0.161-12.444l-5.116-4.983
		c-0.011-0.011-0.024-0.009-0.039-0.016l29.652-30.08l34.57-35.384l0,0l0,0l0,0c0.013-0.014,0.021-0.028,0.029-0.045l4.164-9.236
		c0.007-0.02,0.058-0.236,0.058-0.532c0-0.378-0.083-0.886-0.452-1.272c-0.603-0.627-6.488-6.176-6.74-6.412
		c-0.016-0.016-0.035-0.028-0.057-0.035c-0.213-0.07-0.655-0.049-0.903,0.533c-0.245,0.57-4.007,8.658-4.249,9.18l-47.231,47.327
		L172.26,72.294c-0.015,0.015-0.026,0.033-0.034,0.052l-2.631,6.409c-0.003-0.086-0.071-0.156-0.158-0.156h-1.181
		c-0.09,0-0.161,0.072-0.161,0.162v0.498h-0.13l0.228-4.765V43.915c0-0.248-0.002-0.484-0.003-0.718
		c0-0.002,0.003-0.004,0.003-0.006s-0.003-0.005-0.003-0.007c-0.028-4.335-0.35-6.221-1.536-9.464
		c-1.229-3.359-4.136-3.563-4.177-3.563c-0.006,0-0.07,0-0.182,0.002c-0.159-0.987-1.232-7.236-3.557-12.709
		c0.02-0.026,0.035-0.051,0.037-0.084c0.001-0.031,0.08-3.171,0.08-5.797c0-2.647-0.104-2.909-0.933-3.735
		c-0.804-0.804-3.077-0.773-3.172-0.772c-0.021,0-0.46,0.013-0.675,0.501l-1.205,0.226c-0.02,0.003-0.027,0.018-0.043,0.027
		c-0.548-0.31-1.158-0.352-2.102-0.352c-0.037,0-0.064,0.018-0.092,0.038c-0.027-0.02-0.056-0.038-0.092-0.038
		c-0.941,0-1.553,0.042-2.1,0.351c-0.016-0.009-0.025-0.023-0.045-0.026l-1.205-0.226c-0.216-0.489-0.654-0.501-0.672-0.501
		c-0.097-0.001-2.372-0.032-3.175,0.772c-0.827,0.827-0.933,1.088-0.933,3.735c0,2.626,0.081,5.767,0.082,5.797
		c0,0.033,0.019,0.058,0.037,0.084c-2.313,5.443-3.385,11.654-3.555,12.709c-0.117-0.001-0.187-0.002-0.193-0.002
		c-0.029,0.001-2.938,0.206-4.166,3.563c-1.188,3.243-1.507,5.128-1.536,9.464c0,0.002-0.002,0.004-0.002,0.007
		s0.002,0.004,0.002,0.006c-0.001,0.234-0.002,0.47-0.002,0.718v30.587l0.246,4.756h-0.149V78.76c0-0.089-0.071-0.162-0.161-0.162
		h-1.18c-0.089,0-0.161,0.072-0.161,0.162v0.498h-0.415V78.76c0-0.089-0.072-0.162-0.161-0.162h-1.18
		c-0.089,0-0.161,0.072-0.161,0.162v0.498h-0.274V78.76c0-0.089-0.07-0.162-0.16-0.162h-1.182c-0.088,0-0.161,0.072-0.161,0.162
		v0.498h-0.215c-0.089,0-0.161,0.072-0.161,0.162v0.922L97.147,49.033L62.492,13.734c-0.016-0.014-0.029-0.025-0.048-0.033
		l-9.146-4.356c-0.044-0.011-1.112-0.283-1.813,0.359c-0.64,0.586-6.31,6.359-6.551,6.605c-0.016,0.015-0.026,0.035-0.036,0.056
		c-0.073,0.196-0.062,0.639,0.515,0.9c0.563,0.258,8.57,4.186,9.09,4.438l46.333,48.209l14.914,15.128
		c0.014,0.014,0.03,0.026,0.05,0.035l1.827,0.796c-0.03,0.021-0.059,0.048-0.067,0.086l-0.567,2.114l0.159,12.437l-13.928,0.62
		c-0.083,0.003-0.147,0.069-0.154,0.153l-0.102,1.947c-0.048,0.007-0.093,0.028-0.119,0.073c-0.014,0.023-0.338,0.597-0.422,1.184
		c-0.08,0.541,0.293,1.303,0.395,1.5l-0.153,2.944l-0.241,10.944c0,0.076,0.058,0.152,0.138,0.163l20.603,2.897
		c0.016,0.002,0.026-0.009,0.043-0.012c-0.016,0.464-0.021,0.948-0.021,1.461v7.471l-30.037,30.471l-34.57,35.383c0,0,0,0-0.001,0
		l0,0c-0.001,0,0,0.002-0.001,0.002c-0.014,0.014-0.022,0.027-0.03,0.045l-4.165,9.236c-0.01,0.045-0.259,1.117,0.396,1.805
		c0.601,0.627,6.489,6.176,6.74,6.412c0.019,0.016,0.036,0.027,0.059,0.033c0.197,0.072,0.641,0.051,0.89-0.531
		c0.245-0.57,4.005-8.658,4.249-9.18l47.233-47.328l9.39-9.649l0.413,6.606l1.589,4.078l0.06,0.027
		c0.067,0.029,0.58,0.256,0.974,0.174c0.034,0.182,0.031,0.338,0.001,0.371c-0.225,0.223-0.07,0.672-0.037,0.762l0.031,0.051
		c0.047,0.051,1.132,1.238,1.347,1.453c0.289,0.289,0.748,0.098,0.768,0.09l0.052-0.035c0.046-0.047,0.92-0.924,1.544-1.66
		c0.028,0.168,0.03,0.322-0.001,0.359c-0.226,0.223-0.07,0.674-0.038,0.76l0.03,0.053c0.048,0.051,1.134,1.24,1.349,1.453
		c0.288,0.289,0.748,0.096,0.767,0.088l0.05-0.033c0.044-0.045,0.892-0.893,1.513-1.621c0.002,0.076-0.003,0.141-0.022,0.16
		c-0.223,0.225-0.07,0.67-0.037,0.76l0.032,0.055c0.046,0.049,1.132,1.236,1.347,1.453c0.289,0.287,0.748,0.096,0.769,0.088
		l0.05-0.035c0.025-0.021,0.294-0.295,0.632-0.648c0,0.066-0.005,0.121-0.021,0.141c-0.225,0.221-0.07,0.67-0.037,0.758l0.031,0.053
		c0.047,0.051,1.132,1.24,1.347,1.455c0.289,0.287,0.748,0.096,0.768,0.088l0.441-0.518l1.369,25.768"/>
</g>
</svg>
