<?xml version="1.0" encoding="utf-8"?>
<!-- Generator: Adobe Illustrator 16.0.0, SVG Export Plug-In . SVG Version: 6.00 Build 0)  -->
<!DOCTYPE svg PUBLIC "-//W3C//DTD SVG 1.1//EN" "http://www.w3.org/Graphics/SVG/1.1/DTD/svg11.dtd">
<svg version="1.1" id="Layer_2" xmlns="http://www.w3.org/2000/svg" xmlns:xlink="http://www.w3.org/1999/xlink" x="0px" y="0px"
	 width="300px" height="300px" viewBox="0 0 300 300" enable-background="new 0 0 300 300" xml:space="preserve">
<g>
	<path d="M56.853,2.327c-1.47,1.424-2.401,3.728-1.959,4.837l0.011,0.029l77.714,79.353l-0.114,26.104l-0.59,0.573l-4.712,0.032
		c-4.101-0.186-6.209,4.02-6.481,8.272l-0.116,2.686l-65.036,63.201l-0.034,0.051c-0.62,1.446-0.247,2.97,1.053,4.297
		c1.433,1.459,3.746,2.38,4.851,1.927l0.029-0.012l58.653-58.231l-0.174,3.999c-0.268,3.602,2.628,6.415,7.23,7.001
		c6.448,0.73,8.442,4.049,9.931,7.386l0.006-0.002c1.521,7.259,3.133,13.763,4.72,20.165l0.399,1.604l2.103,35.06l-0.746,0.332
		v6.167l1.144,0.152l2.736,45.645c-0.42,0.863-0.752,1.688-1.01,2.48l-3.487,0.043v-6.086l-35.991,1.188l-0.149,0.007l-0.094,13.507
		l37.974,4.757l0.174,0.022l0.027-3.485h1.939c0.473,1.229,1.04,2.409,1.604,3.579c0.476,0.981,0.925,1.914,1.316,2.872
		l-0.283,1.081l0.976,0.228l2.061-0.266l0.029-0.096c0.529-1.729,1.277-3.369,2.001-4.957c1.127-2.473,2.189-4.813,2.497-7.446
		h1.538l0.465,2.569l0.624,0.029v1.013h0.895v-0.976h0.007l-0.023,25.019h0.313l0.022-25.005l2.645,0.117v-6.884h-2.625
		l0.103-23.735l-0.313-0.002l-0.103,23.737h-0.025v-1.159h-0.895v1.159h-0.622l-0.47,2.388h-1.45
		c-0.044-1.94-0.543-3.866-1.533-5.881l4.32-86.966c0.384-1.551,0.77-3.092,1.158-4.642c1.286-5.135,2.589-10.342,3.839-15.998
		l0.07,0.031c1.158-2.596,3.315-7.425,10.207-8.208c4.397-0.561,7.244-3.157,7.244-6.527c0-0.156-0.005-0.312-0.017-0.469
		l-0.263-6.09l58.146,60.657l0.05,0.034c1.443,0.629,2.972,0.267,4.305-1.024c1.22-1.182,2.069-2.973,2.069-4.18
		c0-0.246-0.033-0.471-0.109-0.656l-0.012-0.031l-64.945-66.313l-0.014-0.32c-0.272-4.25-2.381-8.455-6.474-8.27l-1.938-0.012
		l-3.1-3.165l0.416-25.102L248.48,9.8l0.035-0.05c0.196-0.456,0.294-0.921,0.294-1.384c0-1.006-0.456-2.005-1.347-2.912
		c-1.435-1.459-3.743-2.378-4.851-1.927l-0.027,0.012L170.74,74.867l0.313-18.894v-0.804c0-0.2,0-0.405,0-0.617
		c0-4.34-0.091-11.123-2.19-16.537l0.003-0.023l-0.034-0.027c-0.083-0.121-0.316-1.068-0.586-2.164
		c-1.601-6.505-5.851-23.783-14.129-25.083l-0.118-0.012c-8.442,0.102-13.519,16.328-15.957,24.126
		c-0.646,2.066-1.157,3.699-1.438,4.055l-0.021,0.04c-2.367,6.103-3.134,11.322-3.83,17.045l-0.087,19.909L61.207,1.338l-0.05-0.036
		C59.714,0.672,58.185,1.036,56.853,2.327z"/>
</g>
</svg>
