<?xml version="1.0" encoding="utf-8"?>
<!-- Generator: Adobe Illustrator 16.0.0, SVG Export Plug-In . SVG Version: 6.00 Build 0)  -->
<!DOCTYPE svg PUBLIC "-//W3C//DTD SVG 1.1//EN" "http://www.w3.org/Graphics/SVG/1.1/DTD/svg11.dtd">
<svg version="1.1" id="Layer_2" xmlns="http://www.w3.org/2000/svg" xmlns:xlink="http://www.w3.org/1999/xlink" x="0px" y="0px"
	 width="300px" height="300px" viewBox="0 0 300 300" enable-background="new 0 0 300 300" xml:space="preserve">
<g>
	<path d="M114.681,280.229l0.917-0.006l5.008-7.356l0.023-0.034l0.012-1.277l17.833-25.953l0.05-0.069l-0.001-0.001l4.246-6.18
		l0.021-0.029l0.257-3.82c3.408,2.26,6.692,2.368,6.729,2.368h0.185c0.045,0.003,4.512,0.162,8.459-3.59
		c3.594-3.417,5.624-8.863,6.059-16.202c2.576,0.429,5.541,0.865,8.126,1.096c6.141,0.544,72.699,5.721,73.37,5.771l0.134,0.011
		l0.738-8.584l-22.703-1.776l-0.467-0.791l-8.874-0.656l-0.041-0.004l-1.111,0.631l-31.398-2.457l-0.081-0.006l0,0l-7.476-0.584
		l-0.036-0.004l-8.08,3.973l-0.743-2.994c0.345-0.299,1.146-1.184,1.396-3.137c0.455-0.207,2.729-1.426,2.729-5.172
		c0-4.047,0.292-44.883,0.294-45.295v-26.84l9.241,13.45l0.012,1.278l5.032,7.388l0.918,0.009l12.818,18.658l0.078,0.111
		l6.953-4.858l0.109-0.077l-0.075-0.109c-0.297-0.434-23.256-33.879-35.088-51.059v-5.05c0-0.04-0.103-3.963-4.686-6.08
		l-0.339-15.43c-0.001-0.02-0.167-1.878-1.814-2.349l-0.011-0.57c0-0.067-0.216-6.725-3.228-11.925l6.068-4.135l3.191-6.824h0.002
		l0.039-0.086l13.344-28.515l1.097-0.656l3.824-8.081l-0.459-0.795L196.88,5.05l0.057-0.124l-7.832-3.591l-0.058,0.122
		c-0.284,0.61-28.609,61.062-31.164,66.674c-0.365,0.804-0.732,1.659-1.092,2.533c-1.922-1.488-4.216-2.26-6.823-2.296v-0.007
		c-0.03,0-0.058,0.003-0.089,0.003c-0.034,0-0.067-0.003-0.104-0.003v0.008c-4.97,0.07-8.104,2.799-10.08,6.127h-0.021v0.036
		c-3.094,5.239-3.335,11.929-3.338,12.04l-0.023,1.706l-1.961-0.039l-8.875-4.362l-7.511,0.588v-0.002l-0.102,0.01l-31.378,2.454
		l-1.111-0.629l-8.915,0.659l-0.466,0.791l-22.57,1.765l-0.136,0.011l0.739,8.585l0.134-0.011
		c0.671-0.052,67.229-5.227,73.371-5.773c2.208-0.196,4.693-0.543,6.977-0.908l-0.336,13.5c-4.583,2.116-4.685,6.04-4.685,6.081
		v47.1l0.066,9.649c-8.574-18.331-18.3-39.089-18.467-39.446l-0.058-0.122l-7.832,3.591l9.651,20.626l-0.458,0.797l3.823,8.08
		l1.097,0.656l12.386,26.467c0.057,8.828,0.085,13.733,0.085,14.994c0,3.745,2.272,4.965,2.729,5.172
		c0.25,1.953,1.05,2.838,1.396,3.137l-0.851,3.424h2.116c0.015,6.456,1.14,11.656,3.344,15.46c-0.708,0.922-1.395,1.845-2.017,2.729
		c-3.544,5.043-41.325,60.082-41.707,60.64l-0.076,0.108l7.063,4.938L114.681,280.229z"/>
</g>
</svg>
